<svg width="54" height="54" viewBox="0 0 54 54" fill="none" xmlns="http://www.w3.org/2000/svg">
<path d="M27 0C41.9175 0 54 12.0825 54 27C54.0001 32.6575 52.2252 38.1726 48.9254 42.7681C45.6255 47.3636 40.9671 50.8081 35.6063 52.6163C34.2563 52.8863 33.75 52.0425 33.75 51.3338C33.75 50.4225 33.7838 47.52 33.7838 43.9088C33.7838 41.3775 32.94 39.7575 31.9613 38.9137C37.9688 38.2387 44.28 35.9437 44.28 25.5825C44.28 22.6125 43.2338 20.2162 41.5125 18.3262C41.7825 17.6512 42.7275 14.8837 41.2425 11.1712C41.2425 11.1712 38.9813 10.4288 33.8175 13.9388C31.6575 13.3313 29.3625 13.0275 27.0675 13.0275C24.7725 13.0275 22.4775 13.3313 20.3175 13.9388C15.1538 10.4625 12.8925 11.1712 12.8925 11.1712C11.4075 14.8837 12.3525 17.6512 12.6225 18.3262C10.9013 20.2162 9.855 22.6462 9.855 25.5825C9.855 35.91 16.1325 38.2387 22.14 38.9137C21.3638 39.5887 20.655 40.77 20.4188 42.525C18.8663 43.2338 14.985 44.3812 12.555 40.2975C12.0488 39.4875 10.53 37.4962 8.40375 37.53C6.1425 37.5637 7.4925 38.8125 8.4375 39.3187C9.585 39.96 10.9013 42.3562 11.205 43.1325C11.745 44.6512 13.5 47.5538 20.2838 46.305C20.2838 48.5663 20.3175 50.6925 20.3175 51.3338C20.3175 52.0425 19.8113 52.8525 18.4613 52.6163C13.0837 50.8263 8.40623 47.3884 5.09251 42.7904C1.77878 38.1924 -0.00297162 32.6677 3.7203e-06 27C3.7203e-06 12.0825 12.0825 0 27 0Z" fill="currentColor"/>
</svg>
